<svg id="Capa_1" enable-background="new 0 0 512.001 512.001" height="512" viewBox="0 0 512.001 512.001" width="512" xmlns="http://www.w3.org/2000/svg"><g><g><path d="m451.181 224.891c-2.17-.26-3.97-1.83-4.36-3.98-2.19-12.01-5.49-23.63-9.79-34.76-.87-2.24.05-4.79 2.14-5.99l41.01-23.68c1.49-.86 1.97-2.8 1.03-4.23-16.15-24.76-48.77-33.1-74.9-18.9-8.26-10.11-17.52-19.38-27.64-27.64-1.85-1.52-2.32-4.17-1.12-6.24l24.34-42.15c.85-1.49.3-3.41-1.23-4.18-25.48-12.92-56.61-4.87-72.69 18.58-1.27 1.85-3.6 2.67-5.71 1.9-10.81-3.93-22.08-6.92-33.7-8.89-2.35-.4-4.06-2.45-4.06-4.84v-49.3c0-1.72-1.44-3.1-3.15-3-28.59 1.55-51.57 24.18-53.68 52.62-.17 2.24-1.78 4.11-3.99 4.48-11.63 1.95-22.9 4.94-33.73 8.86-2.23.8-4.72-.12-5.9-2.17l-24.57-42.56c-.86-1.49-2.8-1.97-4.24-1.03-23.81 15.54-32.43 46.31-20.41 71.89.94 2.01.47 4.42-1.26 5.83-9.15 7.45-17.6 15.72-25.26 24.7-1.53 1.8-4.13 2.23-6.17 1.05l-41.82-24.15c-1.49-.85-3.4-.3-4.18 1.23-12.67 25-5.17 55.44 17.27 71.77 1.8 1.31 2.47 3.69 1.67 5.77-4.31 11.09-7.61 22.67-9.83 34.64-.43 2.31-2.47 3.98-4.82 3.98h-46.84c-1.72 0-3.1 1.44-3 3.15 1.49 27.49 22.48 49.79 49.38 53.34 2.17.29 3.89 2 4.21 4.16 1.87 12.39 4.91 24.38 9 35.88.79 2.22-.14 4.69-2.18 5.87l-39.18 22.62c-1.49.86-1.97 2.79-1.03 4.23 14.79 22.68 43.38 31.58 68.17 22.02 2.01-.78 4.27-.19 5.62 1.49 7.92 9.88 16.79 18.97 26.47 27.13 1.81 1.53 2.24 4.14 1.06 6.19l-22 38.11c-.85 1.48-.3 3.39 1.22 4.17 23.86 12.09 52.67 5.81 69.45-14.28 1.36-1.64 3.59-2.23 5.58-1.47 11.84 4.56 24.24 7.99 37.07 10.16 2.35.39 4.07 2.44 4.07 4.83v43.31c0 1.71 1.43 3.1 3.14 3 26.66-1.44 48.43-21.21 52.98-46.93.36-2.07 1.94-3.72 4.02-4.06 12.87-2.11 25.31-5.49 37.2-10 2.24-.85 4.77.07 5.96 2.15l21.72 37.62c.86 1.48 2.79 1.96 4.23 1.02 22.55-14.7 31.49-43.06 22.19-67.75-.75-2-.18-4.23 1.45-5.6 9.72-8.13 18.62-17.18 26.58-27.04 1.51-1.87 4.17-2.34 6.26-1.14l38.45 22.21c1.49.85 3.4.3 4.18-1.23 12.35-24.36 5.53-53.89-15.6-70.49-1.7-1.34-2.36-3.58-1.63-5.62 4.13-11.51 7.21-23.52 9.11-35.92.37-2.38 2.44-4.13 4.85-4.13h45.82c1.72 0 3.1-1.44 3-3.15-1.51-27.79-22.92-50.28-50.23-53.46zm-196.288 98.61c-32.31 0-70.105-40.409-70.105-72.719s37.795-66.671 70.105-66.671 71.342 37.6 71.342 69.91-39.032 69.48-71.342 69.48z" fill="#e9edf1"/><path d="m451.181 224.891c-2.17-.26-3.97-1.83-4.36-3.98-.87-4.73 1.78 11.31 2.49 23.49.12 2.19 1.72 3.96 3.84 4.49 17.69 4.29 31.78 16.67 38.73 32.61h6.53c1.72 0 3.1-1.44 3-3.15-1.51-27.79-22.92-50.28-50.23-53.46zm30.03-72.64c-16.15-24.76-48.77-33.1-74.9-18.9-3.281-4.014 4.673 5.905 11.38 16.002 1.227 1.848 3.523 2.615 5.635 1.938 17.857-5.723 36.842-2.134 51.195 8.459l5.66-3.27c1.49-.859 1.97-2.799 1.03-4.229zm-40.95 174.92c-1.7-1.34-2.36-3.58-1.63-5.62 1.71-4.74-4.21 10.83-9.72 21.75-.97 1.93-.59 4.24.94 5.77 12.43 12.49 18.07 29.76 16.18 46.56l5.65 3.26c1.49.85 3.4.3 4.18-1.23 12.35-24.36 5.53-53.89-15.6-70.49zm-39.6-274.03c-25.48-12.92-56.61-4.87-72.69 18.58-1.27 1.85-3.6 2.67-5.71 1.9-3.9-1.42 11.12 4.19 21.37 9.41 2 1.02 4.41.49 5.9-1.19 12.62-14.3 31.13-20.89 49.1-18.87l3.26-5.65c.85-1.49.3-3.41-1.23-4.18zm-20.27 351.72c3.98-3.33-8.8 7.14-19.43 14.03-1.79 1.16-2.63 3.3-2.13 5.38 4.05 16.68.25 33.97-9.57 47.27l3.26 5.65c.86 1.48 2.79 1.96 4.23 1.02 22.55-14.7 31.49-43.06 22.19-67.75-.75-2-.18-4.23 1.45-5.6zm-116.68 44.97c-2.11.08-3.87 1.53-4.48 3.54-4.95 16.17-16.77 28.99-31.73 35.52v6.52c0 1.71 1.43 3.1 3.14 3 26.66-1.44 48.43-21.21 52.98-46.93.36-2.07 1.94-3.72 4.02-4.06 5.12-.84-10.9 1.88-23.93 2.41zm17.64-442.24c-28.59 1.55-51.57 24.18-53.68 52.62-.15 1.93-1.36 3.58-3.1 4.23 7.33-1.18 14.77-1.96 22.3-2.29 2.24-.09 4.06-1.75 4.51-3.96 3.74-18.79 16.49-33.82 33.12-41.08v-6.52c0-1.72-1.44-3.1-3.15-3zm-116.91 419.66c-1.88-1-4.17-.68-5.72.78-12.38 11.6-29.08 16.83-45.35 15.01l-3.26 5.65c-.85 1.48-.3 3.39 1.22 4.17 23.86 12.09 52.67 5.81 69.45-14.28 1.14-1.37 2.88-2.01 4.58-1.74-7.21-2.79-14.19-6-20.92-9.59zm-1.69-392.77-3.27-5.66c-.86-1.49-2.8-1.97-4.24-1.03-23.81 15.54-32.43 46.31-20.41 71.89.73 1.56.61 3.35-.29 4.74 5.73-4.57 11.71-8.83 17.92-12.73 1.89-1.19 2.65-3.52 1.96-5.63-5.9-17.97-2.34-37.13 8.33-51.58zm-72.18 323.4c-1.14-1.83-3.31-2.69-5.4-2.16-16.82 4.22-34.28.44-47.7-9.46l-5.65 3.26c-1.49.86-1.97 2.79-1.03 4.23 14.79 22.68 43.38 31.58 68.17 22.02 1.51-.58 3.15-.4 4.45.44-4.63-5.86-8.92-11.98-12.84-18.33zm-6.92-199.48c-13.48-12.59-19.65-30.56-17.68-48.03l-5.65-3.26c-1.49-.85-3.4-.3-4.18 1.23-12.67 25-5.17 55.44 17.27 71.77 1.3.95 2.01 2.45 2 4 2.7-6.81 5.78-13.41 9.2-19.78 1.05-1.97.67-4.41-.96-5.93zm-21.96 103.13c-.05-2.18-1.55-4.09-3.67-4.64-17.3-4.48-31.06-16.72-37.9-32.39h-6.53c-1.72 0-3.1 1.44-3 3.15 1.49 27.49 22.48 49.79 49.38 53.34 1.52.2 2.82 1.1 3.57 2.36-1.02-7.17-1.64-14.45-1.85-21.82z" fill="#dce6eb"/><path d="m256.001 153.501c-54.95 0-99.5 44.55-99.5 99.5s44.55 99.5 99.5 99.5 99.5-44.55 99.5-99.5-44.55-99.5-99.5-99.5zm0 158c-32.31 0-58.5-26.19-58.5-58.5s26.19-58.5 58.5-58.5 58.5 26.19 58.5 58.5-26.19 58.5-58.5 58.5z" fill="#dce6eb"/><path d="m321.331 177.951c12.66 16.69 20.17 37.49 20.17 60.05 0 54.95-44.55 99.5-99.5 99.5-25.01 0-47.85-9.22-65.33-24.45 18.16 23.97 46.94 39.45 79.33 39.45 54.95 0 99.5-44.55 99.5-99.5 0-29.95-13.23-56.81-34.17-75.05z" fill="#c8d2dc"/><g fill="#dce6eb"><circle cx="109.501" cy="253.501" r="20"/><circle cx="402.501" cy="253.501" r="20"/></g><g fill="#c8d2dc"><path d="m129.501 253.501c0 11.05-8.95 20-20 20-9.34 0-17.18-6.39-19.38-15.04 2 .67 4.15 1.04 6.38 1.04 11.05 0 20-8.95 20-20 0-1.71-.22-3.37-.62-4.96 7.92 2.66 13.62 10.14 13.62 18.96z"/><path d="m422.501 253.501c0 11.05-8.95 20-20 20-9.34 0-17.18-6.39-19.38-15.04 2 .67 4.15 1.04 6.38 1.04 11.05 0 20-8.95 20-20 0-1.71-.22-3.37-.62-4.96 7.92 2.66 13.62 10.14 13.62 18.96z"/></g></g><g><path d="m178.789 321.075c-2.995 2.932-3.047 7.736-.116 10.732 13.019 13.302 29.408 23.069 47.397 28.244 9.962 2.866 20.002 4.23 29.886 4.23 47.04 0 90.456-30.941 104.094-78.351 16.503-57.374-16.748-117.476-74.121-133.98-57.374-16.504-117.475 16.748-133.98 74.121-6.828 23.738-5.472 48.334 3.921 71.126 1.598 3.875 6.036 5.72 9.908 4.125 3.875-1.598 5.722-6.034 4.125-9.908-8.075-19.592-9.239-40.737-3.368-61.148 14.19-49.329 65.867-77.92 115.198-63.729 49.33 14.19 77.919 65.868 63.729 115.198-14.189 49.33-65.867 77.921-115.198 63.729-15.47-4.451-29.559-12.844-40.745-24.274-2.927-2.993-7.732-3.046-10.73-.115z"/><path d="m256.001 204.397c22.049 0 41.671 14.002 48.824 34.842 1.362 3.965 5.684 6.073 9.641 4.714 3.964-1.361 6.075-5.678 4.714-9.641-9.258-26.971-34.648-45.093-63.18-45.093-36.824 0-66.783 29.958-66.783 66.783s29.958 66.783 66.783 66.783c29.726 0 56.148-19.953 64.253-48.522 1.144-4.032-1.197-8.228-5.229-9.372-4.035-1.147-8.229 1.197-9.372 5.229-6.263 22.071-26.68 37.486-49.652 37.486-28.455 0-51.605-23.15-51.605-51.605.001-28.454 23.151-51.604 51.606-51.604z"/><path d="m79.937 256.507c0 15.343 12.483 27.826 27.826 27.826s27.826-12.483 27.826-27.826-12.483-27.826-27.826-27.826-27.826 12.483-27.826 27.826zm40.475 0c0 6.974-5.674 12.648-12.648 12.648s-12.648-5.674-12.648-12.648 5.674-12.648 12.648-12.648 12.648 5.674 12.648 12.648z"/><path d="m404.238 284.333c15.343 0 27.826-12.483 27.826-27.826s-12.483-27.826-27.826-27.826-27.826 12.483-27.826 27.826 12.483 27.826 27.826 27.826zm0-40.474c6.974 0 12.648 5.674 12.648 12.648s-5.674 12.648-12.648 12.648-12.648-5.674-12.648-12.648 5.674-12.648 12.648-12.648z"/><path d="m456.189 220.255c-2.129-11.049-5.194-21.964-9.125-32.503l42.28-24.41c1.743-1.006 3.015-2.664 3.536-4.608.522-1.945.248-4.016-.758-5.759-8.187-14.179-21.29-24.693-36.897-29.605-14.896-4.688-30.843-3.906-45.121 2.173-7.173-8.273-15.041-16.002-23.432-23.018l25.08-43.442c2.096-3.629.852-8.271-2.778-10.367-28.75-16.599-65.803-8.661-85.273 17.954-10.164-3.576-20.664-6.352-31.275-8.267v-50.813c.081-4.077-3.512-7.67-7.589-7.589-9.579 0-18.813 2.031-27.444 6.037-3.801 1.764-5.454 6.276-3.689 10.078 1.764 3.801 6.277 5.455 10.078 3.689 4.307-1.999 8.814-3.356 13.465-4.059v44.861c0 6.15 4.389 11.356 10.437 12.377 11.137 1.882 22.163 4.792 32.771 8.646 5.35 1.945 11.365-.015 14.625-4.767 13.224-19.284 38.173-26.543 59.441-18.291l-22.101 38.282c-3.095 5.357-1.873 12.079 2.906 15.985 8.852 7.236 17.1 15.328 24.514 24.051 3.618 4.256 9.733 5.574 14.875 3.209 21.278-9.803 45.808-3.633 59.98 14.174l-37.152 21.449c-5.393 3.115-7.683 9.58-5.446 15.372 4.211 10.911 7.415 22.283 9.519 33.798.997 5.451 5.415 9.55 10.995 10.201 22.65 2.643 40.295 20.181 43.638 42.157h-41.327c-6.244 0-11.462 4.465-12.408 10.621-1.821 11.872-4.801 23.624-8.861 34.929-1.841 5.126-.191 10.839 4.107 14.215 17.409 13.681 23.492 37.322 15.667 57.507l-34.54-19.941c-5.391-3.116-12.13-1.872-16.027 2.954-7.726 9.562-16.427 18.412-25.863 26.304-4.113 3.441-5.6 9.133-3.703 14.164 7.764 20.605 1.205 43.32-15.569 56.691l-19.462-33.708c-3.093-5.363-9.528-7.665-15.299-5.475-11.673 4.432-23.846 7.705-36.183 9.728-5.234.86-9.377 4.991-10.311 10.28-3.782 21.402-20.764 37.557-41.719 40.735v-38.787c0-6.148-4.393-11.355-10.447-12.377-12.288-2.079-24.414-5.402-36.042-9.875-5.029-1.938-10.737-.448-14.202 3.704-13.974 16.737-36.796 22.278-56.59 14.525l19.742-34.195c3.048-5.277 1.891-11.947-2.751-15.86-9.404-7.927-18.071-16.808-25.762-26.399-3.434-4.281-9.193-5.823-14.334-3.844-20.728 8-43.601 1.498-57.062-15.416l35.296-20.378c5.251-3.031 7.591-9.363 5.565-15.054-4.021-11.296-6.965-23.037-8.753-34.895-.833-5.513-5.262-9.872-10.772-10.6-22.23-2.934-39.555-20.411-42.884-42.048h42.355c6.056 0 11.248-4.307 12.344-10.241 2.122-11.476 5.335-22.81 9.55-33.682 2.067-5.324.3-11.378-4.294-14.722-18.656-13.579-25.347-37.728-17.151-58.634l37.961 21.916c5.245 3.029 11.897 1.892 15.816-2.707 7.438-8.725 15.708-16.813 24.58-24.04 4.427-3.605 5.801-9.776 3.344-15.006-9.869-21.003-3.625-46.1 14.024-60.311l22.34 38.693c3.047 5.28 9.406 7.609 15.126 5.538 10.616-3.844 21.652-6.741 32.802-8.612 5.663-.95 9.918-5.662 10.349-11.456.546-7.341 2.647-14.309 6.242-20.711 2.051-3.654.753-8.281-2.902-10.333-3.654-2.049-8.281-.752-10.333 2.902-4.358 7.762-7.033 16.16-7.961 24.992-10.608 1.894-21.107 4.648-31.269 8.201l-25.336-43.881c-2.095-3.63-6.738-4.872-10.367-2.778-14.255 8.23-24.794 21.414-29.676 37.124-4.649 14.96-3.792 30.939 2.385 45.227-8.393 6.984-16.27 14.684-23.455 22.93l-43.146-24.911c-3.49-2.109-8.398-.792-10.367 2.778-16.394 28.396-9.275 64.192 16.442 84.134-3.958 10.506-7.051 21.39-9.214 32.413h-48.354c-4.192 0-7.589 3.397-7.589 7.589 0 31.954 23.378 59.293 54.7 64.396 1.837 11.442 4.67 22.77 8.435 33.731l-40.478 23.37c-3.571 1.968-4.886 6.877-2.778 10.367 7.826 13.555 20.268 23.851 35.034 28.99 14.008 4.874 29.253 4.843 43.143-.057 7.533 9.216 15.903 17.808 24.925 25.584l-22.732 39.375c-2.108 3.49-.793 8.398 2.778 10.367 27.019 15.599 60.992 9.975 81.498-13.256 11.349 4.248 23.121 7.486 35.049 9.64v44.743c0 4.192 3.397 7.589 7.589 7.589 31.125 0 57.726-21.801 63.922-52.097 11.957-2.075 23.759-5.236 35.143-9.412l22.432 38.853c1.969 3.57 6.876 4.888 10.367 2.778 27.284-15.753 39.324-48.237 29.079-77.796 9.083-7.735 17.52-16.295 25.121-25.489l39.692 22.916c3.63 2.094 8.271.852 10.367-2.778 15.82-27.402 9.436-62.642-14.739-82.758 3.829-10.975 6.721-22.322 8.614-33.79h47.253c4.192 0 7.589-3.397 7.589-7.589-.003-32.512-23.869-59.957-55.815-64.589z"/></g></g></svg>